<svg width="281" height="102" viewBox="0 0 281 102" fill="none" xmlns="http://www.w3.org/2000/svg">
<g clip-path="url(#clip0_101_2)">
<g style="mix-blend-mode:screen">
<path style="mix-blend-mode:screen" d="M140.131 48.6364H132.92C132.869 48.0398 132.733 47.4986 132.511 47.0128C132.298 46.527 132 46.1094 131.616 45.7599C131.241 45.402 130.786 45.1293 130.249 44.9418C129.712 44.7457 129.102 44.6477 128.42 44.6477C127.227 44.6477 126.217 44.9375 125.391 45.517C124.572 46.0966 123.95 46.9276 123.524 48.0099C123.107 49.0923 122.898 50.392 122.898 51.9091C122.898 53.5114 123.111 54.8537 123.537 55.9361C123.972 57.0099 124.598 57.8196 125.416 58.3651C126.234 58.902 127.219 59.1705 128.369 59.1705C129.026 59.1705 129.614 59.0895 130.134 58.9276C130.653 58.7571 131.105 58.5142 131.489 58.1989C131.872 57.8835 132.183 57.5043 132.422 57.0611C132.669 56.6094 132.835 56.1023 132.92 55.5398L140.131 55.5909C140.045 56.6989 139.734 57.8281 139.197 58.9787C138.661 60.1207 137.898 61.1776 136.909 62.1491C135.929 63.1122 134.714 63.8878 133.266 64.4759C131.817 65.0639 130.134 65.358 128.216 65.358C125.812 65.358 123.656 64.8423 121.747 63.8111C119.847 62.7798 118.342 61.2628 117.234 59.2599C116.135 57.2571 115.585 54.8068 115.585 51.9091C115.585 48.9943 116.148 46.5398 117.273 44.5455C118.398 42.5426 119.915 41.0298 121.824 40.0071C123.733 38.9759 125.864 38.4602 128.216 38.4602C129.869 38.4602 131.391 38.6861 132.78 39.1378C134.169 39.5895 135.388 40.25 136.436 41.1193C137.484 41.9801 138.328 43.0412 138.967 44.3026C139.607 45.5639 139.994 47.0085 140.131 48.6364ZM143.355 65V38.8182H150.463V49.0455H159.873V38.8182H166.98V65H159.873V54.7727H150.463V65H143.355ZM177.463 38.8182V65H170.355V38.8182H177.463ZM190.906 65H180.832V38.8182H190.804C193.497 38.8182 195.824 39.3423 197.784 40.3906C199.752 41.4304 201.27 42.9304 202.335 44.8906C203.409 46.8423 203.946 49.1818 203.946 51.9091C203.946 54.6364 203.413 56.9801 202.348 58.9403C201.282 60.892 199.774 62.392 197.822 63.4403C195.87 64.4801 193.565 65 190.906 65ZM187.94 58.9659H190.65C191.946 58.9659 193.049 58.7571 193.961 58.3395C194.882 57.9219 195.581 57.2017 196.058 56.179C196.544 55.1562 196.787 53.733 196.787 51.9091C196.787 50.0852 196.539 48.6619 196.045 47.6392C195.559 46.6165 194.843 45.8963 193.897 45.4787C192.96 45.0611 191.809 44.8523 190.446 44.8523H187.94V58.9659ZM207.234 65V38.8182H226.104V44.5455H214.342V49.0455H225.132V54.7727H214.342V59.2727H226.053V65H207.234ZM229.629 65V38.8182H240.93C242.873 38.8182 244.574 39.1719 246.031 39.8793C247.488 40.5866 248.622 41.6051 249.431 42.9347C250.241 44.2642 250.646 45.858 250.646 47.7159C250.646 49.5909 250.228 51.1719 249.393 52.4588C248.566 53.7457 247.403 54.7173 245.903 55.3736C244.412 56.0298 242.669 56.358 240.674 56.358H233.924V50.8352H239.243C240.078 50.8352 240.789 50.733 241.377 50.5284C241.974 50.3153 242.43 49.9787 242.745 49.5185C243.069 49.0582 243.231 48.4574 243.231 47.7159C243.231 46.9659 243.069 46.3565 242.745 45.8878C242.43 45.4105 241.974 45.0611 241.377 44.8395C240.789 44.6094 240.078 44.4943 239.243 44.4943H236.737V65H229.629ZM244.97 52.983L251.515 65H243.794L237.402 52.983H244.97ZM260.477 65H252.806L261.449 38.8182H271.164L279.806 65H272.136L266.409 46.0284H266.204L260.477 65ZM259.045 54.6705H273.466V59.9886H259.045V54.6705Z" fill="url(#paint0_linear_101_2)"/>
</g>
<g style="mix-blend-mode:screen">
<g style="mix-blend-mode:screen">
<path d="M50.8744 91.8692C63.1203 86.7968 68.9355 72.7576 63.8631 60.5117C58.7907 48.2658 44.7515 42.4506 32.5056 47.523C20.2598 52.5954 14.4445 66.6346 19.5169 78.8805C24.5893 91.1264 38.6286 96.9416 50.8744 91.8692Z" fill="#EC4899"/>
</g>
</g>
<g style="mix-blend-mode:screen">
<g style="mix-blend-mode:screen">
<path d="M83.2101 78.4753C95.456 73.4029 101.271 59.3637 96.1988 47.1178C91.1264 34.8719 77.0872 29.0567 64.8413 34.1291C52.5955 39.2015 46.7802 53.2407 51.8526 65.4866C56.925 77.7325 70.9643 83.5477 83.2101 78.4753Z" fill="#F87171"/>
</g>
</g>
<g style="mix-blend-mode:screen">
<g style="mix-blend-mode:screen">
<path d="M58.0956 59.6535C70.3415 54.5811 76.1567 40.5419 71.0843 28.296C66.0119 16.0501 51.9727 10.2349 39.7268 15.3073C27.481 20.3797 21.6657 34.4189 26.7381 46.6648C31.8105 58.9107 45.8498 64.7259 58.0956 59.6535Z" fill="#4F46E5"/>
</g>
</g>
</g>
<defs>
<linearGradient id="paint0_linear_101_2" x1="103.084" y1="16.9785" x2="286.38" y2="52.2143" gradientUnits="userSpaceOnUse">
<stop stop-color="#FFBEFB"/>
<stop offset="1" stop-color="#F87171"/>
</linearGradient>
<clipPath id="clip0_101_2">
<rect width="281" height="102" fill="white"/>
</clipPath>
</defs>
</svg>
